<?xml version="1.0" encoding="utf-8"?>
<!-- Generator: Adobe Illustrator 23.0.2, SVG Export Plug-In . SVG Version: 6.00 Build 0)  -->
<svg version="1.1" id="Layer_1" xmlns="http://www.w3.org/2000/svg" xmlns:xlink="http://www.w3.org/1999/xlink" x="0px" y="0px"
	 viewBox="0 0 2978.9 602" style="enable-background:new 0 0 2978.9 602;" xml:space="preserve">
<style type="text/css">
	.st0{fill:#F05556;}
	.st1{fill:#333333;}
</style>
<title>long_transparentbg_main</title>
<g>
	<path class="st0" d="M517.1,516.5H79.8V79.2h437.3V516.5z M91.8,504.5h413.3V91.2H91.8L91.8,504.5z"/>
	<path class="st0" d="M281.6,419.2V244.1c0-5.3-0.7-6-6-6H157.8c-5.3,0-6,0.7-6,6v22.5c0,3.9,0.9,5.5,3.9,8.2l48.6,40.8
		c14.9,12.4,19.2,21.6,19.2,41.5v30.7c0,27.7-8.9,36.5-36.6,36.5h-8.5c-27.7,0-36.6-8.9-36.6-36.5V194.8c0-27.7,8.9-36.6,36.6-36.6
		H255c27.7,0,36.5,8.9,36.5,36.6v224.5c0,3.9-1.2,5.5-5,5.5S281.6,423.1,281.6,419.2z"/>
	<path class="st1" d="M321.2,379.2V206.5c0-35,11.7-47.8,43.5-47.8h107.3c4.9,0,7.3,1.5,7.3,6.9s-2.3,6.9-7.3,6.9h-54
		c-7,0-8,1-8,8.7v76.3c0,23.1-4.2,32.9-18.7,46.3L339.3,352c-4,3.9-5.1,6.2-5.1,11.8v14.6c0,22.9,7.3,30.9,28.1,30.9h108.5
		c4.9,0,7.3,1.5,7.3,6.9s-2.3,6.9-7.3,6.9H361.2C332.5,423.2,321.2,410.8,321.2,379.2z"/>
	<path class="st1" d="M669.1,195c2.4,4.6,5.2,9.7,8.3,15.3c3.1,5.6,6.4,11.5,9.9,17.7c3.5,6.2,7.1,12.7,10.9,19.3
		c3.8,6.6,7.6,13.3,11.5,20c3.9,6.7,7.8,13.3,11.6,19.8c3.8,6.5,7.5,12.8,11.1,18.8c3.6,6,7,11.6,10.2,16.9s6.1,9.9,8.7,14.1
		c0-14.9,0-28.5,0.1-40.8s0.2-23.4,0.3-33.2c0.2-9.9,0.3-18.6,0.6-26.3s0.5-14.4,0.8-20.2c0.3-5.8,0.7-10.7,1.2-14.7
		c0.3-3.4,0.9-6.7,1.6-10c0.4-1.9,1-3.8,2-5.6c0.8-1.4,1.8-2.6,3-3.6c1.1-0.9,2.4-1.5,3.7-1.9c1.4-0.4,2.8-0.6,4.3-0.6
		c3.8,0,7.6,0.9,11.1,2.4v0.8c-3,4.7-5.2,9.7-6.7,15.1c-2,6.8-3.6,13.7-4.8,20.6c-1.3,7.6-2.4,15.5-3.2,23.9
		c-0.8,8.4-1.5,16.7-2,24.9c-0.5,8.2-0.8,16.1-1.1,23.7c-0.2,7.6-0.4,14.4-0.6,20.3c-0.1,5.2-0.2,10.4-0.3,15.3
		c-0.1,5-0.2,10-0.3,15c-0.1,5-0.1,10-0.2,15.1c-0.1,5.1-0.1,10.3,0,15.7l-9.7,1.3l-1.4-0.2c-1.6-2.3-3.6-5.5-6.1-9.4
		c-2.5-3.9-5.2-8.4-8.3-13.5c-3.1-5.1-6.4-10.6-10-16.6s-7.3-12.3-11.1-18.8c-3.8-6.5-7.8-13.2-11.7-20s-7.9-13.6-11.8-20.2
		c-3.9-6.7-7.7-13.2-11.4-19.6s-7.1-12.4-10.4-17.9c-3.2-5.6-6.2-10.7-8.8-15.4l-6.8-11.8c-0.1,12.3-0.3,24.3-0.5,36
		s-0.5,22.9-0.9,33.7c-0.4,10.8-0.8,21-1.2,30.7s-0.9,18.7-1.5,27c-0.4,5.9-0.8,10.9-1.2,15c-0.3,3.5-0.8,6.9-1.4,10.3
		c-0.4,2.3-1.1,4.5-2.1,6.6c-0.7,1.5-1.7,2.7-3.1,3.6c-1.3,0.8-2.8,1.4-4.4,1.5c-2,0.2-4,0.4-6,0.3h-2.2c-0.4,0-1,0-1.6,0l-2.5-0.1
		l-1.1-0.8c2.4-5.9,4.5-12,6.1-18.1c1.8-6.7,3.3-13.8,4.7-21.3c1.3-7.5,2.5-15.3,3.5-23.3c1-8,1.8-16,2.4-24s1.2-15.9,1.5-23.7
		c0.4-7.8,0.7-15.2,0.9-22.2c0.2-7,0.3-13.5,0.4-19.6c0-6,0.1-11.3,0.1-15.7c0-2.1-0.1-4.1-0.5-6.2c-0.3-1.5-0.9-3-1.9-4.2
		c-1-1.1-2.3-2-3.8-2.4c-2-0.6-4.1-0.8-6.2-0.8c-1.8,0-3.8,0.1-6.1,0.3s-4.8,0.6-7.7,1l-0.9-7.4c4.5-1.1,8.5-2,12.1-2.8
		c3.6-0.8,6.9-1.5,9.8-2.1c2.9-0.6,5.5-1,7.9-1.3c2.1-0.3,4.3-0.4,6.4-0.5c1.7,0,3.5,0.2,5.1,0.8c1.5,0.5,2.8,1.4,4,2.4
		c1.4,1.3,2.6,2.8,3.7,4.5C666.4,190,667.7,192.3,669.1,195z"/>
	<path class="st1" d="M892.4,287c0.1-3.9-0.6-7.8-2.1-11.5c-1.2-3-3.1-5.7-5.4-8c-2.2-2-4.8-3.6-7.6-4.6c-2.7-1-5.6-1.5-8.4-1.5
		c-3.2-0.1-6.4,0.3-9.5,1.3c-2.3,0.7-4.5,1.9-6.3,3.4c-1.6,1.4-2.8,3.2-3.5,5.1c-0.7,2.1-1.1,4.2-1.1,6.4c0,2.7,0.5,5.5,1.4,8.1
		c1,2.8,2.4,5.5,4.1,7.9l-0.3,0.9c-2.8,1.5-5.9,2.3-9.1,2.3c-1.7,0-3.4-0.3-5-0.9c-1.5-0.6-2.9-1.4-4.1-2.5
		c-1.2-1.2-2.1-2.6-2.7-4.1c-0.7-1.7-1-3.6-1-5.4c0-3.2,0.8-6.4,2.3-9.3c1.6-3,3.6-5.7,6-8c2.6-2.5,5.5-4.7,8.7-6.4
		c3.3-1.9,6.7-3.5,10.2-4.8c3.4-1.3,7-2.3,10.5-3c3.2-0.7,6.5-1,9.8-1.1c4.9-0.1,9.7,0.7,14.3,2.3c3.7,1.4,7,3.8,9.6,6.8
		c2.6,3.2,4.4,6.9,5.4,10.8c1.2,4.7,1.8,9.5,1.7,14.4c0,3.7-0.1,7.7-0.4,12.1s-0.6,9-1,13.8c-0.4,4.8-0.7,9.8-1,14.9
		s-0.4,10.2-0.4,15.3c0,8,1.4,14,4.3,18.1c2.8,4.1,6.6,6.1,11.2,6.1c4.1,0,8.6-1.6,13.7-4.8l2.3,3.6c-3.3,3.6-7.2,6.4-11.6,8.5
		c-4.1,2-8.6,3-13.2,3c-3.3,0-6.5-0.6-9.5-1.8c-2.9-1.2-5.5-3.1-7.5-5.5c-2.3-2.7-3.9-5.8-4.9-9.2c-1.2-4.2-1.8-8.5-1.7-12.8
		c0-1.5,0-2.9,0.1-4.4s0.3-3,0.5-4.6h-0.5c-2.3,4.9-5,9.6-7.9,14.2c-2.9,4.5-6.2,8.7-9.9,12.5c-3.4,3.5-7.2,6.5-11.4,8.9
		c-3.9,2.2-8.3,3.4-12.8,3.4c-3.4,0-6.8-0.6-10-2c-2.9-1.3-5.6-3.2-7.8-5.5c-2.2-2.4-3.9-5.2-5-8.3c-1.2-3.4-1.8-6.9-1.8-10.5
		c-0.1-4.6,0.8-9.1,2.6-13.4c1.7-4,4.1-7.7,7.2-10.8c3.2-3.3,6.9-6.1,10.9-8.2c4.4-2.4,9-4.3,13.8-5.8c5.2-1.6,10.5-2.7,15.8-3.4
		c5.6-0.8,11.3-1.1,17-1.1c0.4-3.5,0.7-6.9,0.9-10.2S892.4,291,892.4,287z M843.6,344.5c0,2.1,0.2,4.2,0.7,6.2
		c0.4,1.9,1.1,3.7,2.1,5.3c2,3.2,5.5,5,9.2,4.9c2.6,0,5.1-0.6,7.4-1.8c2.7-1.3,5.2-2.9,7.5-4.9c2.6-2.2,5-4.7,7.1-7.4
		c2.3-2.9,4.3-6.1,6.1-9.4c1.8-3.4,3.3-7,4.5-10.8c1.2-3.8,2-7.6,2.3-11.6c-3.9,0.1-7.8,0.4-11.7,0.8c-3.7,0.4-7.4,1.1-11,2
		c-3.3,0.8-6.6,2-9.7,3.5c-2.8,1.4-5.4,3.2-7.7,5.4c-2.2,2.2-3.9,4.8-5,7.6C844.1,337.6,843.5,341.1,843.6,344.5z"/>
	<path class="st1" d="M1016,192.2c-2.2,10.6-4.1,21.5-5.6,32.8c-1.5,11.3-2.8,22.4-3.9,33.4c2.5,0.1,4.9,0.2,7.3,0.3l6.6,0.2
		c2,0.1,3.9,0.1,5.6,0.1h4.2c4,0.1,7.9-0.2,11.8-0.9c0.3,1,0.5,1.8,0.6,2.6c0.2,0.7,0.2,1.4,0.3,2.2c0,2.5-1,4.1-2.9,4.8
		c-2.7,0.8-5.6,1.2-8.4,1.1c-3.9,0-7.8-0.3-11.7-0.7c-4.3-0.5-9.1-0.9-14.2-1.3c-0.6,6-1.1,11.8-1.5,17.4c-0.4,5.7-0.7,11-1,16
		c-0.2,5-0.4,9.7-0.5,14c-0.1,4.3-0.2,8-0.2,11.2c0,5.3,0.3,10.7,0.9,16c0.4,4.1,1.5,8.1,3.1,11.9c1.3,3,3.4,5.6,6.1,7.5
		c3,1.8,6.4,2.7,9.9,2.6c3.3-0.1,6.5-0.6,9.6-1.6c4.1-1.3,8.2-3,12-5.1c1.4,1.5,2.3,3.5,2.5,5.5c-3.3,2.3-6.6,4.4-9.9,6.2
		c-3.2,1.8-6.5,3.4-9.9,4.8c-3,1.3-6.2,2.3-9.4,3.1c-2.8,0.7-5.7,1.1-8.6,1.1c-3.4,0.1-6.7-0.6-9.8-2c-3.2-1.6-5.9-4.2-7.6-7.3
		c-2.1-3.5-3.8-8.2-5-14.1c-1.3-7.4-1.9-14.9-1.8-22.4c0-5.1,0.1-10.3,0.2-15.7c0.2-5.4,0.4-10.8,0.6-16.4s0.6-11,1-16.6
		s0.9-11,1.4-16.3c-4.2,0.1-8.1,0.2-11.7,0.5c-3.1,0.2-6.2,0.7-9.2,1.5c-0.2-0.4-0.2-0.8-0.2-1.2c0.1-1.3,0.6-2.5,1.6-3.3
		c1.3-1.2,2.9-2.1,4.5-2.8c2.3-0.9,4.6-1.6,7-2.1c2.9-0.6,5.9-1,8.9-1.2c1.2-11.6,2.5-22.6,3.9-33s2.8-19.7,4.2-27.9
		c0.2-1.3,0.7-2.5,1.5-3.6c0.7-0.9,1.5-1.7,2.5-2.3c1-0.6,2-1,3.1-1.2c1.1-0.2,2.2-0.3,3.3-0.3c1.6,0,3.2,0.2,4.7,0.6
		C1013.4,190.9,1014.8,191.4,1016,192.2z"/>
	<path class="st1" d="M1092.4,375.2l-1.3-0.1c0.4-5.3,0.7-11.2,1.1-17.5c0.3-6.3,0.7-12.9,1-19.7c0.3-6.8,0.6-13.7,0.8-20.8
		s0.4-14,0.6-20.7c0.2-6.7,0.4-13.2,0.5-19.4c0.1-6.2,0.2-11.9,0.3-17.1c-0.1-1.4,0.3-2.9,1-4.1c0.7-1,1.5-1.9,2.6-2.5
		c1-0.6,2.1-1,3.3-1.3c1-0.2,2.1-0.3,3.2-0.3c1.9,0,3.7,0.2,5.5,0.7c1.6,0.5,3.2,1.1,4.8,1.9c-0.7,4.4-1.4,9.4-2,15
		s-1.2,11.7-1.7,18.2c-0.6,6.5-1.1,13.2-1.6,20.2c-0.5,7-1.1,14.1-1.6,21.2l0.8,0.1c2.5-10.9,5.4-21.1,8.6-30.6
		c2.8-8.5,6.4-16.8,10.8-24.6c3.4-6.2,7.9-11.8,13.2-16.4c4.4-3.8,10-6,15.8-6c1.9,0,3.8,0.3,5.7,1c1.7,0.6,3.2,1.6,4.5,2.8
		c1.3,1.2,2.3,2.7,3,4.3c0.8,1.7,1.1,3.5,1.1,5.4c0,2.5-0.5,5-1.6,7.2c-1.1,2.4-2.8,4.5-4.9,6.1h-0.6c-1.9-1.7-4-3.1-6.3-4.2
		c-2-0.9-4.1-1.3-6.3-1.3c-2.4,0-4.7,0.5-6.9,1.4c-2.3,1-4.4,2.4-6.1,4.1c-3.4,3.4-6.2,7.3-8.4,11.5c-2.7,5.1-5.1,10.4-7.1,15.9
		c-2.1,5.8-4.1,11.9-5.8,18.3c-1.7,6.4-3.2,12.6-4.4,18.7c-1.2,6.1-2.2,11.8-3,17.1c-0.8,5.3-1.3,9.8-1.6,13.4L1092.4,375.2z"/>
	<path class="st1" d="M1271.5,287c0.1-3.9-0.6-7.8-2.1-11.5c-1.2-3-3.1-5.7-5.4-8c-2.2-2-4.8-3.6-7.6-4.6c-2.7-1-5.6-1.5-8.4-1.5
		c-3.2-0.1-6.4,0.3-9.6,1.3c-2.3,0.7-4.5,1.9-6.3,3.4c-1.6,1.4-2.8,3.2-3.5,5.1c-0.7,2.1-1.1,4.2-1.1,6.4c0,2.7,0.5,5.5,1.4,8.1
		c1,2.8,2.4,5.5,4.1,7.9l-0.3,0.9c-2.8,1.5-6,2.3-9.2,2.3c-1.7,0-3.4-0.3-5.1-0.9c-1.5-0.6-2.9-1.4-4-2.5c-1.2-1.2-2.1-2.6-2.7-4.1
		c-0.7-1.7-1-3.6-1-5.4c0-3.2,0.8-6.4,2.3-9.3c1.5-3,3.6-5.7,6-8c2.6-2.5,5.5-4.7,8.7-6.4c3.3-1.9,6.7-3.5,10.2-4.8
		c3.4-1.3,7-2.3,10.5-3c3.2-0.7,6.5-1,9.8-1.1c4.9-0.1,9.7,0.7,14.3,2.3c3.7,1.4,7,3.8,9.6,6.8c2.6,3.2,4.4,6.9,5.4,10.8
		c1.2,4.7,1.8,9.5,1.7,14.4c0,3.7-0.1,7.7-0.4,12.1c-0.3,4.4-0.6,9-1,13.8s-0.7,9.8-1,14.9s-0.4,10.2-0.4,15.3c0,8,1.4,14,4.3,18.1
		c2.4,3.8,6.6,6.1,11.2,6.1c4.1,0,8.6-1.6,13.7-4.8l2.3,3.6c-3.3,3.6-7.2,6.4-11.6,8.5c-4.1,1.9-8.6,2.9-13.2,2.9
		c-3.3,0-6.5-0.6-9.6-1.8c-2.9-1.2-5.5-3.1-7.6-5.5c-2.3-2.7-3.9-5.8-4.9-9.2c-1.2-4.2-1.8-8.5-1.8-12.8c0-1.4,0-2.9,0.1-4.4
		c0.1-1.5,0.3-3.1,0.5-4.6h-0.5c-2.3,4.9-5,9.6-7.9,14.2c-2.9,4.5-6.2,8.7-9.9,12.5c-3.4,3.5-7.2,6.5-11.4,8.9
		c-3.9,2.2-8.3,3.4-12.8,3.4c-3.4,0-6.8-0.6-10-2c-2.9-1.3-5.6-3.2-7.8-5.5c-2.2-2.4-3.9-5.2-5-8.3c-1.2-3.4-1.8-6.9-1.8-10.5
		c-0.1-4.6,0.8-9.1,2.6-13.4c1.7-4,4.1-7.7,7.2-10.8c3.2-3.3,6.9-6.1,10.9-8.2c4.4-2.4,9-4.3,13.8-5.8c5.2-1.6,10.5-2.7,15.8-3.4
		c5.6-0.8,11.3-1.1,17-1.1c0.4-3.5,0.7-6.9,0.9-10.2S1271.5,291,1271.5,287z M1222.7,344.5c0,2.1,0.2,4.2,0.7,6.2
		c0.4,1.9,1.1,3.6,2.1,5.2c0.9,1.5,2.2,2.7,3.7,3.6c1.7,0.9,3.6,1.4,5.4,1.3c2.6,0,5.1-0.6,7.4-1.8c2.7-1.3,5.2-2.9,7.5-4.9
		c2.6-2.2,5-4.7,7.1-7.4c2.3-2.9,4.3-6.1,6.1-9.4c1.8-3.4,3.3-7,4.5-10.8c1.2-3.8,2-7.6,2.3-11.6c-3.9,0.1-7.8,0.4-11.7,0.8
		c-3.7,0.4-7.4,1.1-11,2c-3.3,0.8-6.6,2-9.7,3.5c-2.8,1.4-5.4,3.2-7.7,5.4c-2.2,2.2-3.9,4.8-5.1,7.6
		C1223.2,337.6,1222.6,341,1222.7,344.5L1222.7,344.5z"/>
	<path class="st1" d="M1384.7,255.3c-0.2,8.3-0.3,16.9-0.5,25.6s-0.5,17.6-0.8,26.6c-0.4,8.9-0.8,17.8-1.4,26.7
		c-0.6,8.9-1.4,17.6-2.3,26.1c-1,8.5-2.1,16.7-3.5,24.7s-3,15.4-4.9,22.5c-2.5,9.5-5.8,17.5-9.7,23.9c-3.4,5.8-7.7,11-12.8,15.4
		c-4.2,3.6-9,6.5-14.2,8.3c-4.5,1.6-9.3,2.4-14.1,2.5c-3.8,0-7.6-0.5-11.3-1.5c-3.1-0.9-6.1-2.2-8.8-4c-2.3-1.5-4.3-3.5-5.8-5.8
		c-1.3-2-2.1-4.4-2.1-6.9c0-1.4,0.4-2.8,1-4.1c0.6-1.4,1.5-2.7,2.6-3.8c1.1-1.2,2.4-2.1,3.8-2.8c1.4-0.7,3-1.1,4.7-1.1
		c3.1,5.8,6.7,9.9,10.8,12.4c4,2.4,8.6,3.7,13.3,3.7c3.3,0,6.5-0.6,9.6-1.9c3.3-1.5,6.1-3.8,8.3-6.6c4-4.9,7.2-12.2,9.5-21.9
		c2.3-9.8,4.1-21.9,5.4-36.6c1.2-14.6,2-31.6,2.4-51.1s0.6-41.3,0.7-65.5c-0.1-1.3,0.3-2.7,1-3.8c0.7-0.9,1.5-1.7,2.6-2.3
		c1-0.5,2.1-0.9,3.3-1.1c1.1-0.2,2.1-0.3,3.2-0.3C1378.2,252.7,1381.7,253.6,1384.7,255.3z M1376.1,217.8c-1.7,0-3.4-0.4-4.8-1.2
		c-1.4-0.8-2.7-1.9-3.7-3.2c-1-1.4-1.8-2.9-2.3-4.6c-1.2-3.9-1-8.1,0.4-12c0.7-1.8,1.8-3.4,3.1-4.9c1.2-1.3,2.6-2.3,4.1-3
		c1.4-0.6,2.9-1,4.5-1c1.7,0,3.3,0.3,4.8,1.1c1.4,0.7,2.6,1.7,3.7,2.9c1,1.3,1.8,2.7,2.3,4.2c0.6,1.7,0.9,3.4,0.8,5.2
		c0,2-0.3,4-0.9,5.9c-0.6,1.9-1.5,3.7-2.6,5.3c-1.1,1.5-2.5,2.8-4.1,3.8C1379.8,217.2,1377.9,217.8,1376.1,217.8L1376.1,217.8z"/>
	<path class="st1" d="M1624.8,176.3c6.5,0,13,0.6,19.3,2c5.3,1.1,10.4,2.8,15.3,4.9c3.7,1.6,7.1,3.7,10.1,6.3
		c2.4,2.2,3.7,4.3,3.7,6.1c0,3.8-0.1,8.8-0.4,15s-0.6,13.6-1,22.2l-6.9-0.3c0.1-0.8,0.1-1.5,0.1-2.2s0-1.4,0-2.2
		c0-3.7-0.4-7.4-1.2-11c-0.8-3.6-2.2-6.9-4.2-10c-2.1-3.2-4.7-6-7.6-8.5c-3-2.5-6.2-4.5-9.7-6.2c-3.6-1.7-7.3-3-11.2-3.8
		c-4-0.9-8.1-1.3-12.2-1.3c-12.9-0.2-25.4,4.4-35,13.1c-4.6,4.2-8.6,9.1-11.8,14.5c-3.4,5.8-6.2,11.9-8.3,18.3
		c-2.2,6.8-3.9,13.7-4.9,20.8c-1.1,7.3-1.6,14.6-1.6,22c0,8.3,0.7,16.6,2.1,24.8c1.3,7.3,3.2,14.5,5.9,21.4
		c2.4,6.2,5.5,12.1,9.2,17.6c3.4,5,7.5,9.4,12.1,13.2c4.4,3.5,9.3,6.3,14.6,8.2c5.3,1.9,10.9,2.9,16.5,2.9c4.2,0,8.4-0.5,12.4-1.4
		c4.5-1,8.8-2.5,13-4.4c4.6-2.1,9.1-4.6,13.3-7.5c4.8-3.3,9.2-6.9,13.4-10.9c0.4,0.2,0.9,0.5,1.5,0.8c0.5,0.3,1.1,0.7,1.6,1.1
		c0.5,0.4,0.9,0.9,1.2,1.4c0.3,0.4,0.5,1,0.5,1.5c-0.1,0.5-0.3,1-0.6,1.4c-4.7,5.6-10,10.6-15.7,15.1c-5,3.9-10.3,7.2-16,9.9
		c-5.2,2.4-10.6,4.2-16.2,5.4c-5.4,1.1-10.8,1.6-16.3,1.6c-13.8,0.1-27.3-4.2-38.6-12.1c-5.7-4-10.8-8.8-15.1-14.2
		c-4.6-5.7-8.5-12-11.5-18.7c-3.3-7.2-5.8-14.8-7.4-22.5c-1.8-8.5-2.6-17.1-2.6-25.7c0-8.8,0.8-17.6,2.5-26.2
		c1.6-8.6,4.1-17.1,7.5-25.2c3.3-8,7.5-15.5,12.5-22.5c4.9-6.9,10.8-13,17.5-18.2c6.8-5.2,14.5-9.3,22.6-12.1
		C1606.1,177.7,1615.4,176.2,1624.8,176.3z"/>
	<path class="st1" d="M1723.6,324.9c0.1-11.6,2.3-23.2,6.6-34c2.1-5.4,4.8-10.5,8.1-15.3c3.1-4.7,6.8-8.9,11.1-12.5
		c4.2-3.6,8.9-6.4,14-8.4c5.3-2.1,11-3.2,16.8-3.1c6.3-0.1,12.5,1.4,18,4.5c5.2,3,9.7,7,13.2,11.9c3.6,5.1,6.4,10.8,8.1,16.9
		c1.8,6.3,2.7,12.8,2.7,19.3c0,11.7-2.3,23.2-6.6,34c-2.2,5.4-4.9,10.5-8.1,15.3c-3.1,4.7-6.8,8.9-11.1,12.5
		c-4.2,3.6-8.9,6.4-14,8.5c-5.3,2.1-11,3.1-16.8,3.1c-6.3,0.1-12.5-1.4-18-4.5c-5.2-3-9.7-7-13.1-11.9c-3.6-5.1-6.3-10.8-8-16.9
		C1724.5,338,1723.6,331.5,1723.6,324.9z M1742.6,317c0,3.9,0.3,7.7,0.8,11.5c0.5,3.8,1.4,7.6,2.6,11.3c1.1,3.5,2.6,6.9,4.3,10.2
		c1.6,3,3.7,5.8,6.1,8.2c2.3,2.3,5,4.2,8,5.5c3.1,1.4,6.4,2,9.7,2c3.6,0.1,7.1-0.8,10.2-2.6c3-1.8,5.6-4.2,7.6-7c2.2-3,4-6.4,5.3-10
		c1.4-3.8,2.6-7.6,3.4-11.6c0.8-3.9,1.4-7.9,1.8-11.9c0.3-3.9,0.5-7.5,0.5-10.8c0-3.9-0.3-7.8-0.8-11.6c-0.5-3.8-1.4-7.6-2.6-11.2
		c-1.1-3.5-2.6-6.9-4.3-10.1c-1.6-3-3.7-5.8-6.1-8.2c-2.3-2.3-5-4.1-8-5.5c-3.1-1.4-6.4-2-9.7-2c-3.6-0.1-7.1,0.8-10.2,2.6
		c-3,1.8-5.6,4.1-7.6,7c-2.2,3.1-4,6.4-5.3,10c-1.4,3.8-2.5,7.6-3.4,11.5c-0.8,3.9-1.4,7.9-1.8,11.9
		C1742.8,310.2,1742.6,313.7,1742.6,317L1742.6,317z"/>
	<path class="st1" d="M1862.4,261.8c3.8-1.4,7.4-2.7,10.9-3.8c3.5-1.1,6.7-2.1,9.6-3s5.5-1.5,7.7-1.9c1.7-0.4,3.5-0.6,5.2-0.7
		c2.7-0.2,5.3,0.9,7.2,2.9c1.7,1.9,2.6,5.2,2.6,9.9c0,1.1-0.1,3.5-0.3,7.2s-0.5,8.2-0.9,13.8s-0.9,11.8-1.5,18.9s-1.3,14.6-2,22.6
		l0.5,0.1c3.1-12.2,7-24.1,11.9-35.7c4.2-9.6,8.5-17.4,12.8-23.3c4.3-5.9,8.7-10.1,13.1-12.7c3.9-2.4,8.3-3.7,12.8-3.8
		c3.3-0.1,6.6,0.9,9.3,2.8c2.6,2,4.7,4.5,6.2,7.4c1.7,3.3,2.9,6.8,3.5,10.4c0.7,3.9,1.1,7.9,1.1,11.8c0,3.5-0.1,7.2-0.3,11.2
		s-0.5,7.8-0.8,11.6c-0.3,3.8-0.7,7.4-1,10.9s-0.7,6.4-0.9,9l0.5,0.1c3-12.3,7-24.4,11.9-36.2c4.2-9.7,8.5-17.6,12.9-23.5
		c4.4-5.9,8.8-10.1,13.2-12.7c3.9-2.4,8.3-3.7,12.8-3.8c2.7,0,5.3,0.6,7.7,1.8c2.6,1.3,4.9,3.2,6.6,5.6c2.1,3,3.7,6.4,4.7,10
		c1.2,4.8,1.8,9.8,1.7,14.8c0,1.6-0.1,3.8-0.3,6.6s-0.4,6-0.7,9.4s-0.6,7.1-0.9,11s-0.7,7.7-0.9,11.4s-0.5,7.3-0.7,10.7
		s-0.3,6.3-0.3,8.7c0,3.5,0.1,7.1,0.5,10.6c0.2,2.2,0.8,4.4,1.7,6.5c0.6,1.4,1.8,2.6,3.2,3.3c1.5,0.6,3.2,0.9,4.8,0.9
		c2.9,0,5.8-0.4,8.6-1.2c3.1-0.9,6.1-2,9-3.4l1.5,4.4c-2.3,1.9-4.7,3.5-7.2,4.9c-3,1.7-6,3.2-9.2,4.6c-3.1,1.4-6.3,2.5-9.6,3.4
		c-2.7,0.8-5.6,1.2-8.4,1.3c-2.5,0.1-4.9-0.7-6.8-2.4c-1.8-1.9-3-4.1-3.7-6.6c-0.9-3.2-1.4-6.5-1.6-9.8c-0.2-3.7-0.4-7.8-0.4-12
		c0-5.2,0.2-10.6,0.5-16.3c0.3-5.7,0.7-11.1,1.2-16.2s0.8-9.8,1.2-13.9s0.5-7.3,0.5-9.4c0-6.1-1-10.6-3.1-13.7
		c-1.8-2.9-4.9-4.6-8.3-4.6c-2.7,0-5.6,1.3-8.6,4c-3.5,3.3-6.6,7.1-9.1,11.2c-3.4,5.4-6.3,11-8.8,16.8c-3,6.8-5.5,13.8-7.7,21
		c-2.3,7.8-4.3,15.7-5.8,23.6c-1.6,8.2-2.6,16.4-3.1,24.7l-16.6,2.2l-1.3-0.1c0.6-11.7,1.1-22.1,1.6-31.1c0.5-9,1-16.9,1.4-23.7
		c0.4-6.7,0.7-12.5,1-17.1c0.3-4.7,0.4-8.6,0.4-11.6c0-6.2-1-11-3.1-14.1s-4.7-4.8-7.8-4.8c-2.8,0-5.8,1.3-8.9,4
		c-3.6,3.2-6.7,6.9-9.2,11c-3.3,5.3-6.3,10.8-8.7,16.6c-2.9,6.7-5.4,13.7-7.6,20.7c-2.3,7.7-4.2,15.5-5.7,23.4
		c-1.5,8.2-2.5,16.4-3,24.7l-16.6,2.2l-1.3-0.1c0.4-5.3,0.8-11.1,1.2-17.3s0.7-12.6,1-19s0.6-12.8,0.8-19.2s0.4-12.2,0.6-17.7
		s0.3-10.4,0.4-14.8s0.1-7.8,0.1-10.3c0-1.9-0.1-3.9-0.5-5.8c-0.2-1.3-0.7-2.6-1.5-3.7c-0.6-0.9-1.5-1.6-2.5-2
		c-1.1-0.4-2.4-0.6-3.6-0.6c-2.3,0-4.6,0.3-6.8,0.8c-2.7,0.6-5.7,1.3-9.1,2.3L1862.4,261.8z"/>
	<path class="st1" d="M2094.1,261.4c5.9-1.9,11-3.4,15.2-4.6s7.7-2.1,10.5-2.8c2.8-0.7,5.1-1.1,6.7-1.4c1.2-0.2,2.4-0.3,3.6-0.4
		c1.3,0,2.5,0.2,3.7,0.6c1.2,0.4,2.3,1.2,3.1,2.1c1,1.2,1.6,2.6,2,4.1c0.5,2.1,0.8,4.2,0.7,6.3c0,0.8,0,2.5-0.1,4.9
		s-0.2,5.8-0.4,10.2s-0.5,9.6-0.8,15.9s-0.8,13.7-1.3,22.1l0.9,0.1c3.7-9.9,8.2-19.5,13.4-28.7c4.2-7.5,9.1-14.5,14.6-21
		c4.2-5.1,9.2-9.4,14.8-12.9c4.9-2.9,9.6-4.4,14.1-4.4c3.3-0.1,6.6,0.7,9.5,2.1c2.7,1.4,5.2,3.3,7.2,5.7c2.1,2.5,3.8,5.2,5.1,8.2
		c1.4,3.1,2.5,6.4,3.3,9.7c0.9,3.4,1.5,6.8,1.8,10.3c0.4,3.2,0.5,6.5,0.6,9.7c0,7.7-0.8,15.4-2.4,23c-1.5,6.8-3.6,13.3-6.5,19.6
		c-2.6,5.7-5.9,11-9.8,15.9c-3.5,4.5-7.6,8.4-12.2,11.8c-4.2,3.1-8.8,5.6-13.8,7.4c-4.6,1.7-9.5,2.5-14.4,2.5c-5.1,0-10.2-1-15-2.9
		c-5.2-2.2-9.9-5.5-13.8-9.7c-0.6,14-1.2,28.5-1.7,43.4s-0.9,30.5-1,46.7l-16.7,2l-1.7-0.1c0.8-10.4,1.5-21.4,2.2-32.8
		c0.7-11.5,1.3-23,1.9-34.5c0.6-11.5,1.1-22.9,1.6-34.1c0.5-11.2,0.9-21.7,1.2-31.5c0.3-9.8,0.6-18.7,0.8-26.7s0.3-14.6,0.3-19.9
		c0-1.9-0.1-3.7-0.3-5.6c-0.1-1.4-0.6-2.8-1.2-4c-0.6-1.1-1.5-1.9-2.7-2.4c-1.5-0.6-3-0.9-4.6-0.8c-2.4,0-4.8,0.3-7.2,0.7
		c-2.8,0.4-6.2,1.2-10.2,2.3L2094.1,261.4z M2135.3,355.8c4,3.7,8.5,6.7,13.5,8.9c4.3,1.9,8.8,2.8,13.5,2.9c5.7,0,11.4-1.3,16.4-4
		c5.2-2.8,9.7-6.9,13-11.8c3.9-5.9,6.8-12.5,8.5-19.4c2.2-8.8,3.2-17.8,3.1-26.9c0-3.9-0.3-7.8-0.8-11.7c-0.5-3.7-1.4-7.4-2.6-10.9
		c-1-2.9-2.6-5.7-4.7-8c-1.8-2-4.3-3.2-7-3.1c-3.4,0-6.7,0.9-9.6,2.6c-3.4,1.9-6.5,4.3-9.3,7.1c-3.2,3.2-6.1,6.7-8.6,10.5
		c-2.8,4.1-5.4,8.4-7.8,12.8c-2.4,4.5-4.7,9.1-6.7,13.9c-2,4.8-3.8,9.4-5.3,13.9c-1.5,4.5-2.7,8.8-3.7,12.8
		C2136.3,348.7,2135.7,352.2,2135.3,355.8L2135.3,355.8z"/>
	<path class="st1" d="M2306.8,268.3c0,3.8-0.1,7.8-0.4,12.2s-0.5,8.7-0.9,13.2c-0.3,4.5-0.7,8.9-1.1,13.4s-0.8,8.6-1.1,12.6
		s-0.6,7.6-0.9,10.9s-0.4,6.1-0.4,8.3c0,6.7,1.2,11.5,3.6,14.5c2.2,3,5.8,4.7,9.5,4.6c4.5,0,9.1-2.6,13.8-7.7
		c4.7-5.1,9.2-12.6,13.5-22.4c4.6-10.7,8.3-21.8,11-33.1c3.1-13,5.1-26.3,5.8-39.6l16.9-2.2l1.3,0.1c-0.5,5.3-0.9,11-1.3,16.9
		c-0.4,5.9-0.8,11.8-1.1,17.8c-0.3,5.9-0.6,11.8-0.7,17.4c-0.2,5.7-0.2,10.9-0.2,15.7c-0.1,7.5,0.4,14.9,1.5,22.3
		c0.7,4.7,2,9.3,3.9,13.6c1.6,3.3,3.4,5.6,5.4,6.9c1.8,1.2,4,1.8,6.2,1.9c1.2,0,2.4-0.2,3.6-0.5c1.2-0.3,2.3-0.7,3.4-1.2
		c1-0.4,2-1,2.9-1.5c0.9-0.6,1.6-1.1,2.3-1.5l2.6,3.8c-1.6,1.7-3.4,3.3-5.3,4.7c-1.9,1.5-4,2.8-6.2,3.9c-2.2,1.1-4.5,1.9-6.8,2.5
		c-2.4,0.6-4.8,0.9-7.2,0.9c-3.1,0-6.1-0.7-8.9-1.9c-3.1-1.4-5.7-3.7-7.7-6.5c-2.5-3.6-4.3-7.7-5.4-12c-1.5-6.1-2.1-12.4-2-18.7
		c0-2.4,0.1-4.8,0.1-7.3s0.3-5,0.5-7.8s0.5-5.7,0.8-8.8s0.8-6.6,1.2-10.4l-0.9-0.2c-3.6,14-7.5,25.7-11.7,35.2
		c-4.2,9.5-8.6,17.1-13,22.9c-4.4,5.8-8.9,9.9-13.3,12.4c-3.9,2.3-8.2,3.6-12.7,3.7c-3,0-5.9-0.5-8.7-1.6c-2.9-1.2-5.4-3-7.4-5.4
		c-2.4-2.9-4.2-6.2-5.2-9.8c-1.4-4.9-2.1-10-2-15.1c0-3.9,0.2-8.4,0.6-13.6c0.4-5.2,0.9-10.7,1.4-16.5c0.5-5.8,1-11.9,1.4-18.1
		c0.4-6.2,0.6-12.4,0.6-18.4c0-2.5-0.1-4.6-0.2-6.4c-0.1-1.5-0.4-3-1-4.4c-0.5-1.1-1.3-2-2.4-2.6c-1.3-0.6-2.8-0.9-4.3-0.8
		c-2.4,0.1-4.7,0.3-7,0.8c-2.9,0.6-5.9,1.3-9.1,2.3l-1.2-6c4.4-1.6,8.4-3,12.1-4.2c3.7-1.2,7.1-2.2,10-3s5.4-1.4,7.5-1.8
		c1.5-0.3,3-0.5,4.5-0.6c1.6-0.1,3.3,0.3,4.7,1.1c1.3,0.8,2.3,1.9,3,3.2c0.8,1.6,1.3,3.3,1.5,5
		C2306.7,263.8,2306.8,266,2306.8,268.3z"/>
	<path class="st1" d="M2483,192.2c-2.2,10.6-4.1,21.5-5.6,32.8s-2.8,22.4-3.9,33.4c2.5,0.1,4.9,0.2,7.3,0.3l6.6,0.2
		c2,0.1,3.9,0.1,5.6,0.1h4.2c4,0.1,7.9-0.2,11.9-0.9c0.3,1,0.5,1.8,0.6,2.6c0.2,0.7,0.2,1.4,0.2,2.2c0,2.5-1,4.1-2.9,4.8
		c-2.7,0.8-5.6,1.2-8.4,1.1c-3.9,0-7.8-0.3-11.7-0.7c-4.3-0.5-9.1-0.9-14.2-1.3c-0.6,6-1.1,11.8-1.5,17.4s-0.7,11-0.9,16
		c-0.2,5-0.4,9.7-0.5,14c-0.1,4.3-0.2,8-0.2,11.2c0,5.3,0.3,10.7,0.9,16c0.4,4.1,1.5,8.1,3.1,11.9c1.3,3,3.4,5.6,6.1,7.5
		c3,1.8,6.4,2.7,9.9,2.6c3.3-0.1,6.5-0.6,9.6-1.6c4.1-1.3,8.2-3,12-5.1c1.4,1.5,2.3,3.5,2.5,5.5c-3.3,2.3-6.7,4.4-10,6.2
		c-3.2,1.8-6.5,3.4-9.9,4.8c-3,1.3-6.2,2.3-9.4,3.1c-2.8,0.7-5.7,1.1-8.6,1.1c-3.4,0.1-6.7-0.6-9.7-2c-3.2-1.6-5.9-4.1-7.6-7.3
		c-2.2-3.5-3.8-8.2-5-14.1c-1.3-7.4-1.9-14.9-1.8-22.4c0-5.1,0.1-10.3,0.2-15.7c0.1-5.4,0.4-10.8,0.6-16.4s0.6-11,1-16.6
		s0.9-11,1.4-16.3c-4.2,0.1-8.1,0.2-11.6,0.5c-3.1,0.2-6.2,0.7-9.2,1.5c-0.2-0.4-0.3-0.8-0.3-1.2c0.1-1.3,0.6-2.5,1.6-3.3
		c1.3-1.2,2.9-2.1,4.5-2.8c2.3-0.9,4.6-1.6,7-2.1c2.9-0.6,5.9-1,8.9-1.2c1.2-11.6,2.5-22.6,3.9-33s2.8-19.6,4.1-27.8
		c0.2-1.3,0.7-2.5,1.5-3.6c0.7-0.9,1.5-1.7,2.5-2.3c1-0.6,2-1,3.1-1.2c1.1-0.2,2.2-0.3,3.3-0.3c1.6,0,3.2,0.2,4.7,0.6
		C2480.4,190.9,2481.7,191.5,2483,192.2z"/>
	<path class="st1" d="M2632.6,347.1c0.3,0.2,0.7,0.4,1.2,0.7c0.5,0.3,1,0.6,1.4,1c0.4,0.3,0.8,0.7,1.1,1.2c0.3,0.3,0.5,0.8,0.5,1.2
		c0,0.2-0.1,0.5-0.2,0.7c-2.8,4.1-6,7.9-9.6,11.4c-3.2,3.1-6.8,5.7-10.7,8c-3.5,2.1-7.3,3.7-11.3,4.8c-3.7,1-7.5,1.5-11.3,1.5
		c-6.1,0.1-12.1-1.3-17.5-4.1c-5.3-2.7-10-6.5-13.7-11.2c-4-5-7-10.6-9-16.7c-2.2-6.6-3.3-13.6-3.2-20.5c0-12,2.5-23.9,7.3-35
		c2.3-5.3,5.2-10.4,8.6-15.1c3.3-4.6,7.2-8.6,11.6-12.1c4.3-3.4,9.1-6.1,14.2-8.1c5.3-2,11-3,16.7-2.9c3.8,0,7.6,0.5,11.2,1.7
		c3.4,1,6.5,2.7,9.3,4.8c2.7,2.1,4.9,4.7,6.4,7.7c4,8.3,2.9,18.2-2.9,25.4c-4,4.6-9,8.3-14.6,10.8c-7,3.2-14.3,5.6-21.9,7.1
		c-9,1.9-18.1,3.3-27.2,4.1v1.4c-0.1,6.6,0.8,13.2,2.6,19.6c1.5,5.4,3.9,10.6,7.1,15.2c2.8,4,6.4,7.4,10.7,9.8
		c4,2.3,8.6,3.5,13.2,3.5c5.1-0.1,10.1-1.4,14.7-3.7C2622.4,356.7,2627.5,352.7,2632.6,347.1z M2617.6,279.9c0-2.5-0.4-4.9-1.2-7.2
		c-0.8-2.1-1.9-4.1-3.4-5.8c-1.5-1.6-3.2-3-5.2-3.9c-2-0.9-4.3-1.4-6.5-1.4c-3.2,0-6.4,0.6-9.4,1.9c-2.8,1.3-5.4,3.1-7.6,5.2
		c-2.3,2.3-4.3,4.9-5.9,7.7c-1.7,3-3.2,6.1-4.3,9.3c-1.2,3.3-2.2,6.7-2.9,10.1c-0.7,3.3-1.3,6.7-1.6,10.1c6.8-0.5,13.6-1.4,20.2-2.9
		c5.2-1.1,10.3-2.9,15.1-5.3c3.7-1.8,6.9-4.4,9.4-7.7C2616.5,287.2,2617.7,283.6,2617.6,279.9L2617.6,279.9z"/>
	<path class="st1" d="M2696.9,375.2l-1.3-0.1c0.4-5.3,0.8-11.1,1.2-17.3c0.4-6.2,0.7-12.5,1-19c0.3-6.4,0.6-12.8,0.8-19.2
		c0.2-6.3,0.4-12.2,0.6-17.7c0.2-5.5,0.3-10.4,0.4-14.8c0.1-4.4,0.1-7.8,0.1-10.3c0-1.8-0.1-3.6-0.2-5.4c-0.1-1.3-0.5-2.6-1.1-3.8
		c-0.5-1-1.4-1.8-2.4-2.2c-1.4-0.5-2.8-0.8-4.3-0.7c-0.9,0-1.9,0.1-2.8,0.2c-1,0.1-2,0.3-3.2,0.5s-2.5,0.5-3.9,0.9s-3.1,0.8-5,1.3
		l-1.2-6c7-2.7,14.1-5.1,21.4-7.1c5.4-1.4,9.1-2,11-2c3.5,0,6,1.1,7.5,3.2s2.3,5.3,2.3,9.6c0,0.4-0.1,1.5-0.2,3.4s-0.3,4.4-0.4,7.4
		s-0.4,6.6-0.7,10.6s-0.6,8.3-0.9,12.9s-0.7,9.3-1.1,14.3s-0.9,10-1.4,14.9l0.8,0.1c2.5-10.9,5.4-21.1,8.6-30.6
		c2.8-8.5,6.4-16.8,10.8-24.6c3.4-6.2,7.9-11.8,13.2-16.4c4.4-3.8,10-6,15.8-6c1.9,0,3.8,0.3,5.6,1c3.4,1.2,6.1,3.8,7.6,7.1
		c0.7,1.7,1.1,3.5,1.1,5.4c0,2.5-0.5,5-1.6,7.2c-1.1,2.4-2.8,4.5-4.9,6.1h-0.6c-1.9-1.7-4-3.1-6.3-4.2c-2-0.9-4.1-1.3-6.3-1.3
		c-2.4,0-4.7,0.5-6.9,1.4c-2.3,1-4.3,2.4-6.1,4.1c-3.4,3.4-6.2,7.3-8.4,11.5c-2.7,5.1-5.1,10.4-7.1,15.9c-2.2,5.8-4.1,11.9-5.8,18.3
		c-1.7,6.4-3.2,12.6-4.5,18.7c-1.2,6.1-2.2,11.8-3,17.1s-1.3,9.8-1.6,13.4L2696.9,375.2z"/>
	<path class="st1" d="M2825.3,342.8c0.2,3.9,1.3,7.6,3.2,11c1.7,2.9,3.9,5.5,6.6,7.5c2.6,1.9,5.5,3.4,8.6,4.3
		c3.1,0.9,6.2,1.4,9.4,1.4c2.9,0,5.7-0.4,8.4-1.3c2.6-0.8,5-2,7.2-3.6c2.1-1.5,3.8-3.5,5-5.8c1.3-2.4,1.9-5,1.9-7.7
		c0.1-2.7-0.6-5.4-2-7.8c-1.4-2.3-3.2-4.4-5.3-6.1c-2.4-2-5-3.7-7.8-5.1c-2.9-1.6-6-3.2-9.2-4.8l-8.5-4.2c-2.8-1.4-5.6-3-8.2-4.6
		c-2.6-1.6-5.1-3.5-7.4-5.4c-2.3-1.9-4.3-4.1-6-6.5c-1.8-2.4-3.1-5.1-4.1-8c-1-3.1-1.5-6.4-1.5-9.8c0-3.6,0.6-7.2,1.9-10.6
		c1.2-3.2,3-6.1,5.2-8.7c2.2-2.6,4.8-4.9,7.6-6.8c2.9-2,6-3.6,9.3-4.9c3.3-1.3,6.7-2.3,10.1-2.9c3.3-0.6,6.7-1,10.1-1
		c4,0,8.1,0.5,12,1.5c3.5,0.9,6.9,2.3,9.9,4.3c2.7,1.8,5,4.1,6.8,6.8c1.7,2.7,2.5,5.8,2.5,9c0,1.4-0.2,2.8-0.6,4.2
		c-0.9,3.2-3.1,6-6.1,7.5c-1.9,0.9-3.9,1.4-6.1,1.4c-2.4,0-4.7-0.4-7-1.1l-0.2-0.8c0.7-1.6,1.2-3.2,1.6-4.9c0.3-1.4,0.5-2.8,0.5-4.2
		c0-2.3-0.6-4.5-1.9-6.5c-1.2-1.7-2.7-3.2-4.5-4.3c-1.8-1.1-3.9-2-6-2.4c-2.1-0.5-4.3-0.7-6.5-0.8c-3.4-0.1-6.8,0.5-10.1,1.6
		c-2.7,0.9-5.3,2.4-7.5,4.2c-2,1.7-3.6,3.7-4.7,6c-1.1,2.2-1.6,4.5-1.6,6.9c0,2.9,0.8,5.8,2.3,8.2c1.7,2.6,3.7,4.8,6.1,6.7
		c2.7,2.2,5.7,4.1,8.8,5.7c3.3,1.8,6.8,3.6,10.4,5.4c4,2,8,4.1,12,6.2c3.8,2,7.4,4.5,10.6,7.3c3.1,2.7,5.6,5.8,7.6,9.4
		c2,3.9,3,8.2,2.9,12.5c0.1,5.3-1.1,10.6-3.6,15.3c-2.4,4.4-5.7,8.3-9.7,11.3c-4.2,3.1-8.9,5.5-13.9,7c-5.3,1.6-10.8,2.4-16.3,2.4
		c-2.9,0-5.8-0.2-8.7-0.7c-3-0.4-5.9-1.1-8.7-2c-2.8-0.9-5.4-2-8-3.3c-2.4-1.2-4.6-2.7-6.6-4.5c-1.8-1.6-3.3-3.5-4.5-5.7
		c-1.1-2.1-1.7-4.5-1.6-6.9c-0.1-1.9,0.4-3.8,1.3-5.5c0.9-1.5,2-2.7,3.5-3.7c1.5-1,3.1-1.7,4.8-2.1c1.8-0.5,3.6-0.7,5.4-0.8
		L2825.3,342.8z"/>
</g>
</svg>
